<?xml version="1.0" standalone="no"?>
<!DOCTYPE svg PUBLIC "-//W3C//DTD SVG 20010904//EN"
 "http://www.w3.org/TR/2001/REC-SVG-20010904/DTD/svg10.dtd">
<svg version="1.0" xmlns="http://www.w3.org/2000/svg"
 width="50.000000pt" height="50.000000pt" viewBox="0 0 50.000000 50.000000"
 preserveAspectRatio="xMidYMid meet">

<g transform="translate(0.000000,50.000000) scale(0.100000,-0.100000)"
fill="#000000" stroke="none">
<path d="M380 480 c-14 -5 -104 -30 -201 -56 l-177 -46 29 -107 c17 -63 29
-131 29 -168 l0 -63 220 0 220 0 0 129 c0 105 -3 130 -15 135 -8 3 -15 11 -15
18 0 32 -44 168 -54 167 -6 0 -22 -4 -36 -9z m-15 -50 c10 -11 26 -20 35 -20
23 0 35 -17 47 -67 l11 -43 -62 0 -61 0 -17 40 c-16 38 -47 60 -84 60 -24 0
-64 -47 -64 -75 0 -24 -3 -25 -55 -25 -50 0 -55 -2 -56 -22 l-2 -23 -4 23 c-3
13 4 33 16 48 12 15 21 33 21 40 0 8 23 20 53 28 28 8 84 24 122 35 39 10 73
20 76 20 3 1 14 -8 24 -19z m61 -175 c9 -13 24 -27 35 -30 16 -5 19 -16 19
-60 0 -45 -4 -59 -25 -80 -25 -25 -29 -25 -175 -25 -146 0 -150 0 -175 25 -21
21 -25 35 -25 80 0 44 3 55 19 60 11 3 26 17 35 30 16 24 19 25 146 25 127 0
130 -1 146 -25z"/>
<path d="M377 364 c-16 -16 -7 -44 14 -44 15 0 20 5 17 22 -3 22 -19 33 -31
22z"/>
<path d="M226 229 c-33 -39 -33 -79 0 -118 35 -42 73 -42 108 0 15 17 26 43
26 59 0 40 -44 90 -80 90 -19 0 -36 -10 -54 -31z"/>
<path d="M114 175 c-4 -9 -2 -21 4 -27 15 -15 44 -1 40 19 -4 23 -36 29 -44 8z"/>
<path d="M404 175 c-4 -9 -2 -21 4 -27 15 -15 44 -1 40 19 -4 23 -36 29 -44 8z"/>
</g>
</svg>
